<svg xmlns="http://www.w3.org/2000/svg">
  <symbol id="home" viewBox="0 0 24 24"><path d="M12 3l10 9h-3v9h-6v-6H11v6H5v-9H2z"/></symbol>
  <symbol id="user" viewBox="0 0 24 24"><path d="M12 2a6 6 0 016 6c0 3.31-2.69 6-6 6s-6-2.69-6-6a6 6 0 016-6zm0 14c4.42 0 8 1.79 8 4v2H4v-2c0-2.21 3.58-4 8-4z"/></symbol>
  <symbol id="add" viewBox="0 0 24 24"><path d="M11 11V4h2v7h7v2h-7v7h-2v-7H4v-2z"/></symbol>
  <symbol id="users" viewBox="0 0 24 24"><path d="M16 11c1.66 0 3-1.34 3-3S17.66 5 16 5s-3 1.34-3 3 1.34 3 3 3zM8 11c1.66 0 3-1.34 3-3S9.66 5 8 5 5 6.34 5 8s1.34 3 3 3zm8 2c-2.33 0-7 1.17-7 3.5V19h14v-2.5C23 14.17 18.33 13 16 13zM8 13c-.29 0-.62.02-.97.05C4.64 13.3 2 14.28 2 15.5V18h6v-2.5c0-.47.17-.92.46-1.31C8.31 14.01 8.16 13 8 13z"/></symbol>
  <symbol id="gear" viewBox="0 0 24 24"><path d="M19.14 12.94c.04-.31.06-.63.06-.94s-.02-.63-.06-.94l2.03-1.58a.5.5 0 00.12-.64l-1.92-3.32a.5.5 0 00-.61-.22l-2.39.96a7.07 7.07 0 00-1.62-.94l-.36-2.54A.5.5 0 0013.9 1h-3.8a.5.5 0 00-.49.41l-.36 2.54a7.07 7.07 0 00-1.62.94l-2.39-.96a.5.5 0 00-.61.22L.82 7.01a.5.5 0 00.12.64l2.03 1.58c-.04.31-.06.63-.06.94s.02.63.06.94l-2.03 1.58a.5.5 0 00-.12.64l1.92 3.32a.5.5 0 00.61.22l2.39-.96c.5.38 1.05.7 1.62.94l.36 2.54a.5.5 0 00.49.41h3.8a.5.5 0 00.49-.41l.36-2.54c.57-.24 1.12-.56 1.62-.94l2.39.96a.5.5 0 00.61-.22l1.92-3.32a.5.5 0 00-.12-.64l-2.03-1.58zM12 15.5A3.5 3.5 0 1115.5 12 3.5 3.5 0 0112 15.5z"/></symbol>
</svg>
